<?xml version="1.0" encoding="UTF-8"?>
<svg id="Layer_3" data-name="Layer 3" xmlns="http://www.w3.org/2000/svg" xmlns:xlink="http://www.w3.org/1999/xlink" viewBox="0 0 2681.93 2599.88">
  <defs>
    <style>
      .cls-1 {
        letter-spacing: .05em;
      }

      .cls-2 {
        fill: url(#linear-gradient-2);
      }

      .cls-3 {
        fill: #fff;
      }

      .cls-4, .cls-5 {
        fill: none;
      }

      .cls-6 {
        fill: url(#linear-gradient-4);
      }

      .cls-7 {
        fill: url(#linear-gradient-3);
      }

      .cls-8 {
        letter-spacing: .01em;
      }

      .cls-5 {
        stroke: navy;
        stroke-miterlimit: 10;
        stroke-width: 9.63px;
      }

      .cls-9 {
        fill: navy;
        font-family: Inter-ExtraBold, Inter;
        font-size: 250px;
        font-weight: 700;
      }

      .cls-10 {
        fill: url(#linear-gradient);
      }

      .cls-11 {
        clip-path: url(#clippath);
      }
    </style>
    <clipPath id="clippath">
      <circle class="cls-5" cx="556.11" cy="1660.6" r="325.01"/>
    </clipPath>
    <linearGradient id="linear-gradient" x1="461.79" y1="1374.34" x2="768.48" y2="2042.62" gradientUnits="userSpaceOnUse">
      <stop offset=".19" stop-color="#00b9dc"/>
      <stop offset=".24" stop-color="#0095ca"/>
      <stop offset=".31" stop-color="#006db6"/>
      <stop offset=".39" stop-color="#004ba5"/>
      <stop offset=".47" stop-color="#003097"/>
      <stop offset=".55" stop-color="#001a8d"/>
      <stop offset=".65" stop-color="#000b85"/>
      <stop offset=".76" stop-color="#000281"/>
      <stop offset=".93" stop-color="navy"/>
    </linearGradient>
    <linearGradient id="linear-gradient-2" x1="453.28" y1="1377.8" x2="760.26" y2="2046.75" gradientUnits="userSpaceOnUse">
      <stop offset=".19" stop-color="#00b9dc"/>
      <stop offset=".23" stop-color="#00a4d1"/>
      <stop offset=".36" stop-color="#0072b9"/>
      <stop offset=".49" stop-color="#0049a4"/>
      <stop offset=".61" stop-color="#002994"/>
      <stop offset=".72" stop-color="#001289"/>
      <stop offset=".83" stop-color="#000482"/>
      <stop offset=".93" stop-color="navy"/>
    </linearGradient>
    <linearGradient id="linear-gradient-3" x1="441.22" y1="1382.99" x2="748.46" y2="2052.47" gradientUnits="userSpaceOnUse">
      <stop offset=".19" stop-color="#00b9dc"/>
      <stop offset=".32" stop-color="#0086c2"/>
      <stop offset=".47" stop-color="#0056ab"/>
      <stop offset=".6" stop-color="#003198"/>
      <stop offset=".73" stop-color="#00168b"/>
      <stop offset=".84" stop-color="#000582"/>
      <stop offset=".93" stop-color="navy"/>
    </linearGradient>
    <linearGradient id="linear-gradient-4" x1="431.02" y1="1387.67" x2="738.26" y2="2057.15" gradientUnits="userSpaceOnUse">
      <stop offset=".19" stop-color="#00b9dc"/>
      <stop offset=".93" stop-color="navy"/>
    </linearGradient>
  </defs>
  <g>
    <g class="cls-11">
      <circle class="cls-4" cx="556.11" cy="1660.6" r="325.01"/>
      <path class="cls-10" d="M794.2,1977.05l-31.11-256.34-1.18-9.71-.96-7.89-3.53-29.15h0s-3.14-25.88-3.14-25.88l-20.51-169.05c-2.68-22.07-21.52-38.45-43.19-38.67-1.9-.03-3.84.08-5.77.32l-16.26,1.98-22.11,2.67-98.22,11.92-17.05,2.06-13.71,1.66-12.04,5.33-15.65,6.91-91.15,40.34c-.03,2.01.06,4.05.32,6.11l9.24,76.21h10.31l95.49,211.73h198.24v26.52l-217.96-2.13c-26.37-59.54-52.74-119.06-79.1-178.6l14.88,122.61,1.18,9.76.96,7.86,3.05,6.9,3.97,8.95,104.64,236.5c.83,1.9,1.79,3.71,2.87,5.42l98.24-11.92,16.99-2.08,13.77-1.66,12.02-5.33,15.68-6.92,91.12-40.3c.05-2.01-.05-4.07-.3-6.13ZM429.35,1523.97c-1.44-3.26.23-7.28,3.65-8.8l100.99-44.68c3.42-1.51,7.52-.04,8.97,3.22,1.44,3.25-.23,7.28-3.65,8.8l-100.99,44.68c-3.42,1.51-7.52.03-8.97-3.22ZM687.13,1781.94c-57.21-.78-114.44-1.55-171.67-2.32-3.06-7.82-6.11-15.62-9.17-23.44h29.4c-3.03-7.95-6.07-15.9-9.08-23.84h-29.65c-1.92-4.92-3.84-9.81-5.76-14.73h31.63c-3.02-7.95-6.05-15.9-9.09-23.84h-31.87c-4.33-11.05-8.64-22.11-12.98-33.16h271.9c-17.87,40.45-35.76,80.88-53.65,121.34ZM545.08,1937.6c-22.23,0-40.24-18.01-40.24-40.23s18.01-40.24,40.24-40.24,40.23,18.02,40.23,40.24-18.01,40.23-40.23,40.23ZM634.94,1897.37c0-22.22,18-40.24,40.22-40.24s40.24,18.02,40.24,40.24-18.01,40.23-40.24,40.23-40.22-18.01-40.22-40.23Z"/>
      <path class="cls-10" d="M794.2,1977.05l-31.11-256.34-1.18-9.71-.96-7.89-3.53-29.15h0s-3.14-25.88-3.14-25.88l-20.51-169.05c-2.68-22.07-21.52-38.45-43.19-38.67-1.9-.03-3.84.08-5.77.32l-16.26,1.98-22.11,2.67-98.22,11.92-17.05,2.06-13.71,1.66-12.04,5.33-15.65,6.91-91.15,40.34c-.03,2.01.06,4.05.32,6.11l9.24,76.21h10.31l95.49,211.73h198.24v26.52l-217.96-2.13c-26.37-59.54-52.74-119.06-79.1-178.6l14.88,122.61,1.18,9.76.96,7.86,3.05,6.9,3.97,8.95,104.64,236.5c.83,1.9,1.79,3.71,2.87,5.42l98.24-11.92,16.99-2.08,13.77-1.66,12.02-5.33,15.68-6.92,91.12-40.3c.05-2.01-.05-4.07-.3-6.13ZM429.35,1523.97c-1.44-3.26.23-7.28,3.65-8.8l100.99-44.68c3.42-1.51,7.52-.04,8.97,3.22,1.44,3.25-.23,7.28-3.65,8.8l-100.99,44.68c-3.42,1.51-7.52.03-8.97-3.22ZM687.13,1781.94c-57.21-.78-114.44-1.55-171.67-2.32-3.06-7.82-6.11-15.62-9.17-23.44h29.4c-3.03-7.95-6.07-15.9-9.08-23.84h-29.65c-1.92-4.92-3.84-9.81-5.76-14.73h31.63c-3.02-7.95-6.05-15.9-9.09-23.84h-31.87c-4.33-11.05-8.64-22.11-12.98-33.16h271.9c-17.87,40.45-35.76,80.88-53.65,121.34ZM545.08,1937.6c-22.23,0-40.24-18.01-40.24-40.23s18.01-40.24,40.24-40.24,40.23,18.02,40.23,40.24-18.01,40.23-40.23,40.23ZM634.94,1897.37c0-22.22,18-40.24,40.22-40.24s40.24,18.02,40.24,40.24-18.01,40.23-40.24,40.23-40.22-18.01-40.22-40.23Z"/>
      <path class="cls-2" d="M813.5,1958.84l-50.41-238.13-3.55-16.79-1.62-7.7-3.34-15.84-6.86-32.31-38.1-180.03c-2.5-11.81-9.6-21.54-19.04-27.69-9.16-5.99-20.52-8.58-31.99-6.44-.36.05-.74.12-1.1.21l-17.03,3.6-92.24,19.53-29.42,6.22-13.39,2.83-15.65,6.91-91.15,40.34-19.41,8.58c-.8,5.11-.71,10.42.43,15.75l12.27,58h26.57l95.49,211.73h198.24v26.52l-217.96-2.13c-26.37-59.54-52.74-119.06-79.1-178.6v-.03c-4.65-10.48-9.29-20.95-13.93-31.43-1.27,0-2.53.01-3.8.01l32.61,154.05,3.56,16.83,1.62,7.69,3.97,8.95,104.64,236.5c.83,1.9,1.79,3.71,2.87,5.42,1.73,2.8,3.74,5.34,5.99,7.61l92.25-19.53,29.34-6.21,13.44-2.86,15.68-6.92,91.12-40.3,19.42-8.6c.8-5.11.71-10.42-.43-15.75ZM429.35,1523.97c-1.44-3.26.23-7.28,3.65-8.8l100.99-44.68c3.42-1.51,7.52-.04,8.97,3.22,1.44,3.25-.23,7.28-3.65,8.8l-100.99,44.68c-3.42,1.51-7.52.03-8.97-3.22ZM687.13,1781.94c-57.21-.78-114.44-1.55-171.67-2.32-3.06-7.82-6.11-15.62-9.17-23.44h29.4c-3.03-7.95-6.07-15.9-9.08-23.84h-29.65c-1.92-4.92-3.84-9.81-5.76-14.73h31.63c-3.02-7.95-6.05-15.9-9.09-23.84h-31.87c-4.33-11.05-8.64-22.11-12.98-33.16h271.9c-17.87,40.45-35.76,80.88-53.65,121.34ZM545.08,1937.6c-22.23,0-40.24-18.01-40.24-40.23s18.01-40.24,40.24-40.24,40.23,18.02,40.23,40.24-18.01,40.23-40.23,40.23ZM634.94,1897.37c0-22.22,18-40.24,40.22-40.24s40.24,18.02,40.24,40.24-18.01,40.23-40.24,40.23-40.22-18.01-40.22-40.23Z"/>
      <path class="cls-7" d="M836.31,1932.43l-74.4-221.43-2.37-7.08-5.61-16.68-1.04-3.07-12.12-36.09-64.24-191.2c-1.81-5.36-4.54-10.14-8-14.22-2.87-3.42-6.24-6.37-9.96-8.74-9.52-6.09-21.3-8.51-32.88-6.05-1.63.33-3.25.79-4.87,1.32l-89.68,30.13-12.36,4.16-29.04,9.74-91.15,40.34-19.41,8.58-15.93,7.06c-1.55.69-3.03,1.44-4.46,2.28-4.73,9.94-5.76,21.63-2.01,32.82l10.6,31.58h51.07l95.49,211.73h198.24v26.52l-217.96-2.13c-26.37-59.54-52.74-119.06-79.1-178.6v-.03c-4.65-10.48-9.29-20.95-13.93-31.43-1.27,0-2.53.01-3.8.01-7.07.03-14.14.08-21.21.11l54.99,163.7,2.39,7.07,5.6,16.64,104.64,236.5c.83,1.9,1.79,3.71,2.87,5.42,1.73,2.8,3.74,5.34,5.99,7.61,4.22,4.28,9.25,7.61,14.72,9.83,1.63-.33,3.25-.76,4.87-1.31l89.64-30.13,12.35-4.13,29.12-9.79,91.12-40.3,19.42-8.6,15.93-7.06c1.54-.68,3.02-1.43,4.43-2.26,4.74-9.95,5.78-21.65,2.03-32.84ZM429.35,1523.97c-1.44-3.26.23-7.28,3.65-8.8l100.99-44.68c3.42-1.51,7.52-.04,8.97,3.22,1.44,3.25-.23,7.28-3.65,8.8l-100.99,44.68c-3.42,1.51-7.52.03-8.97-3.22ZM687.13,1781.94c-57.21-.78-114.44-1.55-171.67-2.32-3.06-7.82-6.11-15.62-9.17-23.44h29.4c-3.03-7.95-6.07-15.9-9.08-23.84h-29.65c-1.92-4.92-3.84-9.81-5.76-14.73h31.63c-3.02-7.95-6.05-15.9-9.09-23.84h-31.87c-4.33-11.05-8.64-22.11-12.98-33.16h271.9c-17.87,40.45-35.76,80.88-53.65,121.34ZM675.16,1857.13c22.23,0,40.24,18.02,40.24,40.24s-18.01,40.23-40.24,40.23-40.22-18.01-40.22-40.23,18-40.24,40.22-40.24ZM545.08,1937.6c-22.23,0-40.24-18.01-40.24-40.23s18.01-40.24,40.24-40.24,40.23,18.02,40.23,40.24-18.01,40.23-40.23,40.23Z"/>
      <path class="cls-6" d="M852.28,1909.5l-91.33-206.39-3.03-6.88-3.99-8.99-1.2-2.7-16.13-36.45-87.31-197.35c-.83-1.88-1.79-3.69-2.86-5.41-1.73-2.8-3.74-5.34-5.98-7.61-4.23-4.29-9.28-7.62-14.74-9.85-10.7-4.37-23.08-4.57-34.42.44l-73.84,32.67-12.04,5.33-15.65,6.91-91.15,40.34-19.41,8.58-15.93,7.06c-1.55.69-3.03,1.44-4.46,2.28-18.98,11.14-27.07,35.16-17.98,55.75l5.39,12.19c.03-1.18.08-2.36.11-3.53h72.14l95.49,211.73h198.24v26.52l-217.96-2.13c-26.37-59.54-52.74-119.06-79.1-178.6v-.03c-4.65-10.48-9.29-20.95-13.93-31.43-1.27,0-2.53.01-3.8.01-7.07.03-14.14.08-21.21.11-6.64.03-13.28.06-19.91.1l75.86,171.46,3.05,6.9,3.97,8.95,104.64,236.5c.83,1.9,1.79,3.71,2.87,5.42,1.73,2.8,3.74,5.34,5.99,7.61,4.22,4.28,9.25,7.61,14.72,9.83,10.7,4.37,23.1,4.57,34.44-.44l73.84-32.66,12.02-5.33,15.68-6.92,91.12-40.3,19.42-8.6,15.93-7.06c1.54-.68,3.02-1.43,4.43-2.26,19-11.14,27.11-35.18,18-55.77ZM429.35,1523.97c-1.44-3.26.23-7.28,3.65-8.8l100.99-44.68c3.42-1.51,7.52-.04,8.97,3.22,1.44,3.25-.23,7.28-3.65,8.8l-100.99,44.68c-3.42,1.51-7.52.03-8.97-3.22ZM687.13,1781.94c-57.21-.78-114.44-1.55-171.67-2.32-3.06-7.82-6.11-15.62-9.17-23.44h29.4c-3.03-7.95-6.07-15.9-9.08-23.84h-29.65c-1.92-4.92-3.84-9.81-5.76-14.73h31.63c-3.02-7.95-6.05-15.9-9.09-23.84h-31.87c-4.33-11.05-8.64-22.11-12.98-33.16h271.9c-17.87,40.45-35.76,80.88-53.65,121.34ZM675.16,1857.13c22.23,0,40.24,18.02,40.24,40.24s-18.01,40.23-40.24,40.23-40.22-18.01-40.22-40.23,18-40.24,40.22-40.24ZM545.08,1937.6c-22.23,0-40.24-18.01-40.24-40.23s18.01-40.24,40.24-40.24,40.23,18.02,40.23,40.24-18.01,40.23-40.23,40.23Z"/>
      <path class="cls-6" d="M852.28,1909.5l-91.33-206.39-3.03-6.88-3.99-8.99-1.2-2.7-16.13-36.45-87.31-197.35c-.83-1.88-1.79-3.69-2.86-5.41-1.73-2.8-3.74-5.34-5.98-7.61-4.23-4.29-9.28-7.62-14.74-9.85-10.7-4.37-23.08-4.57-34.42.44l-73.84,32.67-12.04,5.33-15.65,6.91-91.15,40.34-19.41,8.58-15.93,7.06c-1.55.69-3.03,1.44-4.46,2.28-18.98,11.14-27.07,35.16-17.98,55.75l5.39,12.19c.03-1.18.08-2.36.11-3.53h72.14l95.49,211.73h198.24v26.52l-217.96-2.13c-26.37-59.54-52.74-119.06-79.1-178.6v-.03c-4.65-10.48-9.29-20.95-13.93-31.43-1.27,0-2.53.01-3.8.01-7.07.03-14.14.08-21.21.11-6.64.03-13.28.06-19.91.1l75.86,171.46,3.05,6.9,3.97,8.95,104.64,236.5c.83,1.9,1.79,3.71,2.87,5.42,1.73,2.8,3.74,5.34,5.99,7.61,4.22,4.28,9.25,7.61,14.72,9.83,10.7,4.37,23.1,4.57,34.44-.44l73.84-32.66,12.02-5.33,15.68-6.92,91.12-40.3,19.42-8.6,15.93-7.06c1.54-.68,3.02-1.43,4.43-2.26,19-11.14,27.11-35.18,18-55.77ZM429.35,1523.97c-1.44-3.26.23-7.28,3.65-8.8l100.99-44.68c3.42-1.51,7.52-.04,8.97,3.22,1.44,3.25-.23,7.28-3.65,8.8l-100.99,44.68c-3.42,1.51-7.52.03-8.97-3.22ZM687.13,1781.94c-57.21-.78-114.44-1.55-171.67-2.32-3.06-7.82-6.11-15.62-9.17-23.44h29.4c-3.03-7.95-6.07-15.9-9.08-23.84h-29.65c-1.92-4.92-3.84-9.81-5.76-14.73h31.63c-3.02-7.95-6.05-15.9-9.09-23.84h-31.87c-4.33-11.05-8.64-22.11-12.98-33.16h271.9c-17.87,40.45-35.76,80.88-53.65,121.34ZM675.16,1857.13c22.23,0,40.24,18.02,40.24,40.24s-18.01,40.23-40.24,40.23-40.22-18.01-40.22-40.23,18-40.24,40.22-40.24ZM545.08,1937.6c-22.23,0-40.24-18.01-40.24-40.23s18.01-40.24,40.24-40.24,40.23,18.02,40.23,40.24-18.01,40.23-40.23,40.23Z"/>
      <path class="cls-3" d="M671.95,2025.26c-6.67,2.95-14.12.81-16.59-4.78s.95-12.54,7.62-15.49l78.8-34.86c6.67-2.95,14.12-.81,16.59,4.78,2.47,5.59-.95,12.54-7.62,15.49l-78.8,34.86Z"/>
    </g>
    <circle class="cls-5" cx="556.11" cy="1660.6" r="325.01"/>
  </g>
  <text class="cls-9" transform="translate(902.92 1768.72)"><tspan class="cls-8" x="0" y="0">Y</tspan><tspan class="cls-1" x="190.6" y="0">uShop</tspan></text>
</svg>