<?xml version="1.0" encoding="UTF-8"?>
<svg id="Layer_1" xmlns="http://www.w3.org/2000/svg" version="1.1" viewBox="0 0 640 640">
  <!-- Generator: Adobe Illustrator 29.8.3, SVG Export Plug-In . SVG Version: 2.1.1 Build 3)  -->
  <defs>
    <style>
      .st0 {
        fill: none;
        stroke: #000;
        stroke-miterlimit: 10;
        stroke-width: 16px;
      }
    </style>
  </defs>
  <path d="M326.98,154c-59.85,0-108.33,48.48-108.33,108.33s48.48,108.34,108.33,108.34,108.34-48.48,108.34-108.34-48.48-108.33-108.34-108.33ZM353.8,421.22h-53.63c-74.43,0-137.04,50.48-155.46,119.08,46.02,42.64,107.61,68.7,175.29,68.7,73.1,0,139.09-30.4,186.03-79.25-21.74-63.17-81.67-108.53-152.23-108.53Z"/>
  <path class="st0" d="M578,351c0,69.39-27.4,132.38-71.97,178.75-46.94,48.85-112.93,79.25-186.03,79.25-67.68,0-129.27-26.06-175.29-68.7-50.87-47.12-82.71-114.49-82.71-189.3,0-142.49,115.51-258,258-258s258,115.51,258,258Z"/>
</svg>