<?xml version="1.0" encoding="UTF-8"?>
<svg id="Layer_3" data-name="Layer 3" xmlns="http://www.w3.org/2000/svg" xmlns:xlink="http://www.w3.org/1999/xlink" viewBox="0 0 2681.93 2599.88">
  <defs>
    <style>
      .cls-1 {
        fill: url(#linear-gradient-2);
      }

      .cls-2 {
        fill: #fff;
      }

      .cls-3, .cls-4 {
        fill: none;
      }

      .cls-4 {
        stroke: navy;
        stroke-miterlimit: 10;
        stroke-width: 14px;
      }

      .cls-5 {
        fill: url(#linear-gradient-4);
      }

      .cls-6 {
        fill: url(#linear-gradient-3);
      }

      .cls-7 {
        fill: url(#linear-gradient);
      }

      .cls-8 {
        clip-path: url(#clippath);
      }
    </style>
    <clipPath id="clippath">
      <circle class="cls-4" cx="1103.5" cy="1700.78" r="472.63"/>
    </clipPath>
    <linearGradient id="linear-gradient" x1="966.34" y1="1284.49" x2="1412.32" y2="2256.3" gradientUnits="userSpaceOnUse">
      <stop offset=".19" stop-color="#00b9dc"/>
      <stop offset=".24" stop-color="#0095ca"/>
      <stop offset=".31" stop-color="#006db6"/>
      <stop offset=".39" stop-color="#004ba5"/>
      <stop offset=".47" stop-color="#003097"/>
      <stop offset=".55" stop-color="#001a8d"/>
      <stop offset=".65" stop-color="#000b85"/>
      <stop offset=".76" stop-color="#000281"/>
      <stop offset=".93" stop-color="navy"/>
    </linearGradient>
    <linearGradient id="linear-gradient-2" x1="953.96" y1="1289.54" x2="1400.38" y2="2262.3" gradientUnits="userSpaceOnUse">
      <stop offset=".19" stop-color="#00b9dc"/>
      <stop offset=".23" stop-color="#00a4d1"/>
      <stop offset=".36" stop-color="#0072b9"/>
      <stop offset=".49" stop-color="#0049a4"/>
      <stop offset=".61" stop-color="#002994"/>
      <stop offset=".72" stop-color="#001289"/>
      <stop offset=".83" stop-color="#000482"/>
      <stop offset=".93" stop-color="navy"/>
    </linearGradient>
    <linearGradient id="linear-gradient-3" x1="936.43" y1="1297.07" x2="1383.21" y2="2270.62" gradientUnits="userSpaceOnUse">
      <stop offset=".19" stop-color="#00b9dc"/>
      <stop offset=".32" stop-color="#0086c2"/>
      <stop offset=".47" stop-color="#0056ab"/>
      <stop offset=".6" stop-color="#003198"/>
      <stop offset=".73" stop-color="#00168b"/>
      <stop offset=".84" stop-color="#000582"/>
      <stop offset=".93" stop-color="navy"/>
    </linearGradient>
    <linearGradient id="linear-gradient-4" x1="921.6" y1="1303.88" x2="1368.38" y2="2277.43" gradientUnits="userSpaceOnUse">
      <stop offset=".19" stop-color="#00b9dc"/>
      <stop offset=".93" stop-color="navy"/>
    </linearGradient>
  </defs>
  <g class="cls-8">
    <circle class="cls-3" cx="1103.5" cy="1700.78" r="472.63"/>
    <path class="cls-7" d="M1449.73,2160.95l-45.24-372.77-1.71-14.12-1.4-11.47-5.14-42.39v-.02l-4.57-37.61-29.82-245.83c-3.9-32.1-31.3-55.91-62.81-56.23-2.77-.04-5.58.11-8.39.46l-23.65,2.88-32.15,3.88-142.83,17.34-24.8,3-19.94,2.42-17.51,7.75-22.76,10.05-132.55,58.66c-.05,2.92.09,5.89.46,8.88l13.43,110.83h14.99l138.86,307.9h288.28v38.57l-316.95-3.1c-38.35-86.58-76.69-173.14-115.03-259.72l21.64,178.3,1.71,14.19,1.4,11.43,4.43,10.03,5.78,13.02,152.16,343.92c1.21,2.76,2.6,5.39,4.18,7.88l142.86-17.34,24.7-3.02,20.02-2.42,17.48-7.75,22.8-10.07,132.51-58.61c.07-2.93-.07-5.92-.44-8.92ZM919.17,1502.09c-2.09-4.74.34-10.59,5.31-12.79l146.86-64.98c4.97-2.2,10.94-.06,13.04,4.68,2.09,4.73-.34,10.59-5.31,12.79l-146.86,64.98c-4.97,2.2-10.94.05-13.04-4.68ZM1294.03,1877.23c-83.2-1.14-166.42-2.26-249.64-3.38-4.45-11.37-8.89-22.72-13.34-34.09h42.75c-4.41-11.56-8.82-23.12-13.21-34.67h-43.11c-2.79-7.15-5.59-14.27-8.38-21.42h46c-4.39-11.56-8.8-23.12-13.22-34.67h-46.35c-6.3-16.07-12.57-32.15-18.87-48.22h395.39c-25.99,58.82-52,117.62-78.02,176.45ZM1087.47,2103.58c-32.33,0-58.52-26.19-58.52-58.5s26.19-58.52,58.52-58.52,58.5,26.21,58.5,58.52-26.19,58.5-58.5,58.5ZM1218.13,2045.08c0-32.31,26.18-58.52,58.49-58.52s58.52,26.21,58.52,58.52-26.19,58.5-58.52,58.5-58.49-26.19-58.49-58.5Z"/>
    <path class="cls-7" d="M1449.73,2160.95l-45.24-372.77-1.71-14.12-1.4-11.47-5.14-42.39v-.02l-4.57-37.61-29.82-245.83c-3.9-32.1-31.3-55.91-62.81-56.23-2.77-.04-5.58.11-8.39.46l-23.65,2.88-32.15,3.88-142.83,17.34-24.8,3-19.94,2.42-17.51,7.75-22.76,10.05-132.55,58.66c-.05,2.92.09,5.89.46,8.88l13.43,110.83h14.99l138.86,307.9h288.28v38.57l-316.95-3.1c-38.35-86.58-76.69-173.14-115.03-259.72l21.64,178.3,1.71,14.19,1.4,11.43,4.43,10.03,5.78,13.02,152.16,343.92c1.21,2.76,2.6,5.39,4.18,7.88l142.86-17.34,24.7-3.02,20.02-2.42,17.48-7.75,22.8-10.07,132.51-58.61c.07-2.93-.07-5.92-.44-8.92ZM919.17,1502.09c-2.09-4.74.34-10.59,5.31-12.79l146.86-64.98c4.97-2.2,10.94-.06,13.04,4.68,2.09,4.73-.34,10.59-5.31,12.79l-146.86,64.98c-4.97,2.2-10.94.05-13.04-4.68ZM1294.03,1877.23c-83.2-1.14-166.42-2.26-249.64-3.38-4.45-11.37-8.89-22.72-13.34-34.09h42.75c-4.41-11.56-8.82-23.12-13.21-34.67h-43.11c-2.79-7.15-5.59-14.27-8.38-21.42h46c-4.39-11.56-8.8-23.12-13.22-34.67h-46.35c-6.3-16.07-12.57-32.15-18.87-48.22h395.39c-25.99,58.82-52,117.62-78.02,176.45ZM1087.47,2103.58c-32.33,0-58.52-26.19-58.52-58.5s26.19-58.52,58.52-58.52,58.5,26.21,58.5,58.52-26.19,58.5-58.5,58.5ZM1218.13,2045.08c0-32.31,26.18-58.52,58.49-58.52s58.52,26.21,58.52,58.52-26.19,58.5-58.52,58.5-58.49-26.19-58.49-58.5Z"/>
    <path class="cls-1" d="M1477.79,2134.47l-73.3-346.29-5.16-24.41-2.36-11.19-4.86-23.03-9.97-46.98-55.41-261.8c-3.63-17.18-13.96-31.32-27.69-40.26-13.32-8.71-29.84-12.48-46.52-9.37-.53.07-1.08.18-1.6.3l-24.77,5.23-134.13,28.4-42.78,9.05-19.47,4.12-22.76,10.05-132.55,58.66-28.22,12.47c-1.16,7.43-1.03,15.15.62,22.9l17.84,84.34h38.64l138.86,307.9h288.28v38.57l-316.95-3.1c-38.35-86.58-76.69-173.14-115.03-259.72v-.04c-6.76-15.24-13.51-30.46-20.25-45.7-1.85,0-3.68.02-5.53.02l47.42,224.02,5.18,24.47,2.36,11.18,5.78,13.02,152.16,343.92c1.21,2.76,2.6,5.39,4.18,7.88,2.51,4.07,5.44,7.77,8.71,11.06l134.15-28.4,42.66-9.03,19.54-4.16,22.8-10.07,132.51-58.61,28.24-12.5c1.17-7.43,1.03-15.15-.62-22.9ZM919.17,1502.09c-2.09-4.74.34-10.59,5.31-12.79l146.86-64.98c4.97-2.2,10.94-.06,13.04,4.68,2.09,4.73-.34,10.59-5.31,12.79l-146.86,64.98c-4.97,2.2-10.94.05-13.04-4.68ZM1294.03,1877.23c-83.2-1.14-166.42-2.26-249.64-3.38-4.45-11.37-8.89-22.72-13.34-34.09h42.75c-4.41-11.56-8.82-23.12-13.21-34.67h-43.11c-2.79-7.15-5.59-14.27-8.38-21.42h46c-4.39-11.56-8.8-23.12-13.22-34.67h-46.35c-6.3-16.07-12.57-32.15-18.87-48.22h395.39c-25.99,58.82-52,117.62-78.02,176.45ZM1087.47,2103.58c-32.33,0-58.52-26.19-58.52-58.5s26.19-58.52,58.52-58.52,58.5,26.21,58.5,58.52-26.19,58.5-58.5,58.5ZM1218.13,2045.08c0-32.31,26.18-58.52,58.49-58.52s58.52,26.21,58.52,58.52-26.19,58.5-58.52,58.5-58.49-26.19-58.49-58.5Z"/>
    <path class="cls-6" d="M1510.97,2096.06l-108.19-322-3.45-10.29-8.16-24.26-1.51-4.46-17.62-52.48-93.41-278.04c-2.63-7.8-6.6-14.74-11.63-20.68-4.18-4.98-9.07-9.26-14.48-12.71-13.85-8.86-30.97-12.38-47.81-8.8-2.37.48-4.73,1.15-7.08,1.92l-130.41,43.81-17.98,6.05-42.23,14.17-132.55,58.66-28.22,12.47-23.17,10.26c-2.26,1.01-4.41,2.1-6.49,3.32-6.88,14.46-8.38,31.46-2.92,47.73l15.42,45.93h74.26l138.86,307.9h288.28v38.57l-316.95-3.1c-38.35-86.58-76.69-173.14-115.03-259.72v-.04c-6.76-15.24-13.51-30.46-20.25-45.7-1.85,0-3.68.02-5.53.02-10.28.04-20.56.11-30.84.16l79.97,238.05,3.47,10.28,8.14,24.2,152.16,343.92c1.21,2.76,2.6,5.39,4.18,7.88,2.51,4.07,5.44,7.77,8.71,11.06,6.14,6.22,13.45,11.06,21.41,14.3,2.37-.48,4.73-1.11,7.08-1.91l130.36-43.81,17.96-6.01,42.34-14.23,132.51-58.61,28.24-12.5,23.17-10.26c2.24-.99,4.39-2.08,6.44-3.29,6.9-14.47,8.41-31.49,2.95-47.76ZM919.17,1502.09c-2.09-4.74.34-10.59,5.31-12.79l146.86-64.98c4.97-2.2,10.94-.06,13.04,4.68,2.09,4.73-.34,10.59-5.31,12.79l-146.86,64.98c-4.97,2.2-10.94.05-13.04-4.68ZM1294.03,1877.23c-83.2-1.14-166.42-2.26-249.64-3.38-4.45-11.37-8.89-22.72-13.34-34.09h42.75c-4.41-11.56-8.82-23.12-13.21-34.67h-43.11c-2.79-7.15-5.59-14.27-8.38-21.42h46c-4.39-11.56-8.8-23.12-13.22-34.67h-46.35c-6.3-16.07-12.57-32.15-18.87-48.22h395.39c-25.99,58.82-52,117.62-78.02,176.45ZM1276.62,1986.56c32.33,0,58.52,26.21,58.52,58.52s-26.19,58.5-58.52,58.5-58.49-26.19-58.49-58.5,26.18-58.52,58.49-58.52ZM1087.47,2103.58c-32.33,0-58.52-26.19-58.52-58.5s26.19-58.52,58.52-58.52,58.5,26.21,58.5,58.52-26.19,58.5-58.5,58.5Z"/>
    <path class="cls-5" d="M1534.19,2062.72l-132.81-300.13-4.41-10.01-5.8-13.07-1.74-3.93-23.46-53.01-126.96-286.98c-1.21-2.74-2.6-5.37-4.16-7.86-2.51-4.07-5.44-7.77-8.7-11.06-6.15-6.24-13.49-11.08-21.44-14.33-15.56-6.35-33.56-6.64-50.06.64l-107.37,47.51-17.51,7.75-22.76,10.05-132.55,58.66-28.22,12.47-23.17,10.26c-2.26,1.01-4.41,2.1-6.49,3.32-27.6,16.2-39.37,51.13-26.14,81.07l7.84,17.73c.04-1.71.11-3.43.16-5.14h104.9l138.86,307.9h288.28v38.57l-316.95-3.1c-38.35-86.58-76.69-173.14-115.03-259.72v-.04c-6.76-15.24-13.51-30.46-20.25-45.7-1.85,0-3.68.02-5.53.02-10.28.04-20.56.11-30.84.16-9.65.04-19.31.09-28.95.14l110.32,249.34,4.43,10.03,5.78,13.02,152.16,343.92c1.21,2.76,2.6,5.39,4.18,7.88,2.51,4.07,5.44,7.77,8.71,11.06,6.14,6.22,13.45,11.06,21.41,14.3,15.56,6.36,33.59,6.65,50.08-.64l107.38-47.5,17.48-7.75,22.8-10.07,132.51-58.61,28.24-12.5,23.17-10.26c2.24-.99,4.39-2.08,6.44-3.29,27.63-16.2,39.42-51.16,26.17-81.1ZM919.17,1502.09c-2.09-4.74.34-10.59,5.31-12.79l146.86-64.98c4.97-2.2,10.94-.06,13.04,4.68,2.09,4.73-.34,10.59-5.31,12.79l-146.86,64.98c-4.97,2.2-10.94.05-13.04-4.68ZM1294.03,1877.23c-83.2-1.14-166.42-2.26-249.64-3.38-4.45-11.37-8.89-22.72-13.34-34.09h42.75c-4.41-11.56-8.82-23.12-13.21-34.67h-43.11c-2.79-7.15-5.59-14.27-8.38-21.42h46c-4.39-11.56-8.8-23.12-13.22-34.67h-46.35c-6.3-16.07-12.57-32.15-18.87-48.22h395.39c-25.99,58.82-52,117.62-78.02,176.45ZM1276.62,1986.56c32.33,0,58.52,26.21,58.52,58.52s-26.19,58.5-58.52,58.5-58.49-26.19-58.49-58.5,26.18-58.52,58.49-58.52ZM1087.47,2103.58c-32.33,0-58.52-26.19-58.52-58.5s26.19-58.52,58.52-58.52,58.5,26.21,58.5,58.52-26.19,58.5-58.5,58.5Z"/>
    <path class="cls-5" d="M1534.19,2062.72l-132.81-300.13-4.41-10.01-5.8-13.07-1.74-3.93-23.46-53.01-126.96-286.98c-1.21-2.74-2.6-5.37-4.16-7.86-2.51-4.07-5.44-7.77-8.7-11.06-6.15-6.24-13.49-11.08-21.44-14.33-15.56-6.35-33.56-6.64-50.06.64l-107.37,47.51-17.51,7.75-22.76,10.05-132.55,58.66-28.22,12.47-23.17,10.26c-2.26,1.01-4.41,2.1-6.49,3.32-27.6,16.2-39.37,51.13-26.14,81.07l7.84,17.73c.04-1.71.11-3.43.16-5.14h104.9l138.86,307.9h288.28v38.57l-316.95-3.1c-38.35-86.58-76.69-173.14-115.03-259.72v-.04c-6.76-15.24-13.51-30.46-20.25-45.7-1.85,0-3.68.02-5.53.02-10.28.04-20.56.11-30.84.16-9.65.04-19.31.09-28.95.14l110.32,249.34,4.43,10.03,5.78,13.02,152.16,343.92c1.21,2.76,2.6,5.39,4.18,7.88,2.51,4.07,5.44,7.77,8.71,11.06,6.14,6.22,13.45,11.06,21.41,14.3,15.56,6.36,33.59,6.65,50.08-.64l107.38-47.5,17.48-7.75,22.8-10.07,132.51-58.61,28.24-12.5,23.17-10.26c2.24-.99,4.39-2.08,6.44-3.29,27.63-16.2,39.42-51.16,26.17-81.1ZM919.17,1502.09c-2.09-4.74.34-10.59,5.31-12.79l146.86-64.98c4.97-2.2,10.94-.06,13.04,4.68,2.09,4.73-.34,10.59-5.31,12.79l-146.86,64.98c-4.97,2.2-10.94.05-13.04-4.68ZM1294.03,1877.23c-83.2-1.14-166.42-2.26-249.64-3.38-4.45-11.37-8.89-22.72-13.34-34.09h42.75c-4.41-11.56-8.82-23.12-13.21-34.67h-43.11c-2.79-7.15-5.59-14.27-8.38-21.42h46c-4.39-11.56-8.8-23.12-13.22-34.67h-46.35c-6.3-16.07-12.57-32.15-18.87-48.22h395.39c-25.99,58.82-52,117.62-78.02,176.45ZM1276.62,1986.56c32.33,0,58.52,26.21,58.52,58.52s-26.19,58.5-58.52,58.5-58.49-26.19-58.49-58.5,26.18-58.52,58.49-58.52ZM1087.47,2103.58c-32.33,0-58.52-26.19-58.52-58.5s26.19-58.52,58.52-58.52,58.5,26.21,58.5,58.52-26.19,58.5-58.5,58.5Z"/>
    <path class="cls-2" d="M1271.96,2231.05c-9.71,4.29-20.53,1.18-24.12-6.95s1.38-18.23,11.08-22.53l114.59-50.7c9.71-4.29,20.53-1.18,24.12,6.95,3.6,8.13-1.38,18.23-11.08,22.53l-114.59,50.7Z"/>
  </g>
  <circle class="cls-4" cx="1103.5" cy="1700.78" r="472.63"/>
</svg>